<?xml version="1.0"?>
<svg width="650" height="650" xmlns="http://www.w3.org/2000/svg" xmlns:svg="http://www.w3.org/2000/svg">
 <g class="layer">
  <title>Layer 1</title>
  <ellipse cx="325" cy="325" fill="none" id="svg_21" rx="315" ry="315" stroke="url(#svg_19)" stroke-width="10" transform="matrix(1 0 0 1 0 0)"/>
  <g id="svg_1">
   <g id="svg_2">
    <path d="m562.625268,417.960141l-26.483,-61.793c-0.6,-1.412 -1.571,-2.648 -2.807,-3.575l-70.621,-52.966c-1.289,-0.971 -2.825,-1.571 -4.423,-1.73l-88.276,-8.828c-0.875,-0.089 -1.725,-0.045 -2.539,0.106c-5.257,-4.963 -11.084,-9.027 -17.334,-12.014c1.554,-1.775 2.963,-3.711 4.201,-5.788l41.277,0c1.368,0 2.728,-0.318 3.946,-0.927l88.276,-44.138c2.79,-1.404 4.635,-4.167 4.864,-7.274l8.828,-123.586c0.344,-4.855 -3.319,-9.084 -8.183,-9.437c-4.846,-0.238 -9.084,3.319 -9.437,8.183l-8.466,118.563l-81.911,40.96l-33.45,0c0.143,-1.45 0.223,-2.921 0.223,-4.414c0,-1.85 -0.122,-3.668 -0.341,-5.451c15.385,-3.81 26.823,-17.725 26.823,-34.273c0,-19.474 -15.837,-35.31 -35.31,-35.31c-4.873,0 -8.828,3.955 -8.828,8.828c0,4.873 3.955,8.828 8.828,8.828c9.737,0 17.655,7.918 17.655,17.655c0,8.809 -6.488,16.108 -14.933,17.423c-6.359,-10.507 -17.076,-17.423 -29.205,-17.423c-12.129,0 -22.845,6.916 -29.205,17.423c-8.445,-1.315 -14.933,-8.614 -14.933,-17.423c0,-9.737 7.918,-17.655 17.655,-17.655c4.873,0 8.828,-3.955 8.828,-8.828c0,-4.873 -3.955,-8.828 -8.828,-8.828c-19.474,0 -35.31,15.837 -35.31,35.31c0,16.548 11.438,30.463 26.823,34.273c-0.219,1.784 -0.341,3.601 -0.341,5.451c0,1.492 0.08,2.964 0.223,4.414l-33.45,0l-81.911,-40.96l-8.464,-118.561c-0.353,-4.864 -4.467,-8.404 -9.437,-8.183c-4.864,0.353 -8.527,4.582 -8.183,9.437l8.828,123.586c0.229,3.107 2.074,5.87 4.864,7.274l88.276,44.138c1.218,0.609 2.578,0.927 3.946,0.927l41.277,0c1.238,2.076 2.646,4.012 4.201,5.788c-6.252,2.988 -12.081,7.053 -17.339,12.018c-0.814,-0.153 -1.664,-0.198 -2.535,-0.111l-88.276,8.828c-1.598,0.159 -3.134,0.759 -4.423,1.73l-70.621,52.966c-1.236,0.927 -2.207,2.163 -2.807,3.575l-26.483,61.793c-1.924,4.484 0.15,9.675 4.626,11.591c1.139,0.494 2.322,0.724 3.478,0.724c3.425,0 6.682,-2.013 8.113,-5.349l25.556,-59.63l66.763,-50.07l71.831,-7.181c-6.43,11.117 -10.845,24.169 -12.561,38.314l-51.184,51.184c-1.474,1.474 -2.383,3.434 -2.551,5.517l-8.828,105.931c-0.124,1.474 0.132,2.957 0.733,4.317l35.31,79.448c1.457,3.284 4.687,5.244 8.068,5.244c1.201,0 2.41,-0.247 3.584,-0.768c4.449,-1.977 6.462,-7.195 4.476,-11.652l-34.392,-77.383l8.377,-100.449l36.245,-36.245c4.647,43.091 34.259,76.423 69.982,76.423s65.335,-33.333 69.982,-76.423l36.245,36.245l8.377,100.449l-34.392,77.383c-1.986,4.458 0.026,9.675 4.476,11.652c1.174,0.521 2.383,0.768 3.584,0.768c3.381,0 6.612,-1.96 8.068,-5.244l35.31,-79.448c0.6,-1.359 0.856,-2.843 0.733,-4.317l-8.828,-105.931c-0.168,-2.083 -1.077,-4.043 -2.551,-5.517l-51.184,-51.184c-1.716,-14.146 -6.131,-27.198 -12.561,-38.314l71.831,7.181l66.763,50.07l25.556,59.63c1.43,3.337 4.687,5.349 8.113,5.349c1.156,0 2.339,-0.23 3.478,-0.724c4.475,-1.917 6.55,-7.107 4.625,-11.592zm-255.28,-168.655c0,-12.164 7.918,-22.069 17.655,-22.069c9.737,0 17.655,9.905 17.655,22.069c0,12.164 -7.918,22.069 -17.655,22.069c-9.737,0 -17.655,-9.905 -17.655,-22.069zm17.655,180.966c-29.211,0 -52.966,-31.682 -52.966,-70.621s23.755,-70.621 52.966,-70.621c29.21,0 52.965,31.682 52.965,70.621s-23.755,70.621 -52.965,70.621z" fill="url(#svg_19)" id="svg_3"/>
   </g>
  </g>
  <g id="svg_4"/>
  <g id="svg_5"/>
  <g id="svg_6"/>
  <g id="svg_7"/>
  <g id="svg_8"/>
  <g id="svg_9"/>
  <g id="svg_10"/>
  <g id="svg_11"/>
  <g id="svg_12"/>
  <g id="svg_13"/>
  <g id="svg_14"/>
  <g id="svg_15"/>
  <g id="svg_16"/>
  <g id="svg_17"/>
  <g id="svg_18"/>
 </g>
 <defs>
  <linearGradient id="svg_19" x2="0" y2="1">
   <stop offset="0" stop-color="#25ff88" stop-opacity="0.99609"/>
   <stop offset="1" stop-color="#00b050" stop-opacity="0.99609"/>
  </linearGradient>
 </defs>
</svg>